<!-- Generator: Adobe Illustrator 19.0.0, SVG Export Plug-In . SVG Version: 6.00 Build 0)  -->
<svg fill="#a16207" version="1.1" id="Layer_1" xmlns="http://www.w3.org/2000/svg" xmlns:xlink="http://www.w3.org/1999/xlink" x="0px"
	y="0px" viewBox="0 0 489.601 489.601" style="enable-background:new 0 0 489.601 489.601;" xml:space="preserve">
	<g>
		<g>
			<g>
				<g>
					<g>
						<g>
							<path d="M20.3,477.85c-11.8,0-20.3-9.6-20.3-20.3V30.95c0-11.8,9.6-20.3,20.3-20.3s20.3,8.6,20.3,20.3v426.6
							C40.6,469.25,32,477.85,20.3,477.85z" />
						</g>
						<g>
							<path d="M110.1,377.35c-11.8,0-20.3-9.6-20.3-20.3V30.95c0-11.8,9.6-20.3,20.3-20.3c11.8,0,20.3,9.6,20.3,20.3v326.1
							C130.4,368.75,121.8,377.35,110.1,377.35z" />
						</g>
						<g>
							<path d="M199.9,377.35c-11.8,0-20.3-9.6-20.3-20.3V30.95c0-11.8,9.6-20.3,20.3-20.3s20.3,9.6,20.3,20.3v326.1
							C220.2,368.75,211.7,377.35,199.9,377.35z" />
						</g>
						<g>
							<path d="M289.7,377.35c-11.8,0-20.3-9.6-20.3-20.3V30.95c0-11.8,9.6-20.3,20.3-20.3c10.7,0,20.3,9.6,20.3,20.3v326.1
							C310,368.75,300.4,377.35,289.7,377.35z" />
						</g>
						<g>
							<path d="M379.5,377.35c-11.8,0-20.3-9.6-20.3-20.3V30.95c0-11.8,9.6-20.3,20.3-20.3c10.7,0,20.3,9.6,20.3,20.3v326.1
							C399.8,368.75,390.2,377.35,379.5,377.35z" />
						</g>
						<g>
							<path d="M469.3,477.85c-11.8,0-20.3-9.6-20.3-20.3V30.95c0-11.8,9.6-20.3,20.3-20.3s20.3,9.6,20.3,20.3v426.6
							C489.7,469.25,480,477.85,469.3,477.85z" />
						</g>
					</g>
				</g>
			</g>
			<g>
				<path d="M116.7,393.35c-19.5,0-35.3,19.1-35.3,42.8c0,23.6,15.8,42.8,35.3,42.8s35.3-19.1,35.3-42.8
				C151.9,412.55,136.1,393.35,116.7,393.35z M116.7,462.65c-10.3,0-18.7-11.9-18.7-26.5s8.4-26.5,18.7-26.5s18.7,11.9,18.7,26.5
				S127,462.65,116.7,462.65z" />
				<path d="M202.1,393.35c-19.5,0-35.3,19.1-35.3,42.8c0,23.6,15.8,42.8,35.3,42.8s35.3-19.1,35.3-42.8
				C237.4,412.55,221.6,393.35,202.1,393.35z M202.1,462.65c-10.3,0-18.7-11.9-18.7-26.5s8.4-26.5,18.7-26.5s18.7,11.9,18.7,26.5
				S212.4,462.65,202.1,462.65z" />
				<path d="M287.5,393.35c-19.5,0-35.3,19.1-35.3,42.8c0,23.6,15.8,42.8,35.3,42.8s35.3-19.1,35.3-42.8
				C322.8,412.55,307,393.35,287.5,393.35z M287.5,462.65c-10.3,0-18.7-11.9-18.7-26.5s8.4-26.5,18.7-26.5
				c10.3,0,18.7,11.9,18.7,26.5S297.9,462.65,287.5,462.65z" />
				<path d="M372.9,393.35c-19.5,0-35.3,19.1-35.3,42.8c0,23.6,15.8,42.8,35.3,42.8s35.3-19.1,35.3-42.8
				C408.2,412.55,392.4,393.35,372.9,393.35z M372.9,462.65c-10.3,0-18.7-11.9-18.7-26.5s8.4-26.5,18.7-26.5
				c10.3,0,18.7,11.9,18.7,26.5S383.3,462.65,372.9,462.65z" />
			</g>
		</g>
	</g>
	<g>
	</g>
	<g>
	</g>
	<g>
	</g>
	<g>
	</g>
	<g>
	</g>
	<g>
	</g>
	<g>
	</g>
	<g>
	</g>
	<g>
	</g>
	<g>
	</g>
	<g>
	</g>
	<g>
	</g>
	<g>
	</g>
	<g>
	</g>
	<g>
	</g>
</svg>